<svg width="500" height="500" viewBox="0 0 500 500" fill="none" xmlns="http://www.w3.org/2000/svg">
<path d="M359.522 198.466C358.211 201.581 355.242 203.612 351.929 203.647C351.894 203.647 351.894 203.647 351.894 203.647H253.178L167.508 290.53H144.244L243.996 189.364C245.549 187.824 247.655 186.949 249.76 186.949H332.047L246.343 100.031H65.3746L153.426 189.364C156.636 192.62 156.636 197.941 153.46 201.196L65.3746 290.53H144.21C140.896 290.53 137.928 292.56 136.616 295.711C135.339 298.826 136.064 302.397 138.411 304.777L140.793 307.192H45.4587C42.1452 307.192 39.1423 305.162 37.8651 302.012C36.588 298.861 37.3129 295.29 39.6945 292.91L135.995 195.245L39.6945 97.5805C37.3129 95.2351 36.588 91.6646 37.8651 88.5141C39.1768 85.3636 42.1452 83.3333 45.4587 83.3333H249.726C251.866 83.3333 253.971 84.2084 255.525 85.7487L355.346 186.949L357.727 189.364C360.074 191.815 360.799 195.35 359.522 198.466Z" fill="#00AD8C"/>
<path d="M458.31 405.626C456.998 408.777 453.995 410.807 450.681 410.807H246.345C244.205 410.807 242.1 409.932 240.581 408.392L140.829 307.226L138.447 304.811C136.1 302.431 135.376 298.86 136.653 295.745C137.964 292.594 140.933 290.564 144.246 290.564H242.963L328.632 203.646H351.896C351.93 203.646 351.93 203.646 351.93 203.646L252.179 304.811C250.522 306.421 248.485 307.226 246.345 307.226H164.093L249.797 394.145H430.8L342.715 304.811C341.161 303.236 340.333 301.135 340.333 298.895C340.333 296.655 341.196 294.554 342.715 292.979L430.8 203.646H351.93C355.244 203.611 358.212 201.58 359.524 198.465C360.767 195.349 360.076 191.814 357.729 189.363L355.348 186.948H450.647C453.96 186.948 456.963 188.978 458.275 192.094C459.552 195.244 458.827 198.815 456.48 201.23L360.18 298.895L456.48 396.56C458.827 398.94 459.552 402.511 458.31 405.626Z" fill="#021B51"/>
</svg>
